<svg width="593" height="102" viewBox="0 0 593 102" fill="none" xmlns="http://www.w3.org/2000/svg">
<path d="M4.39844 78H2.02344L2.03906 76.7734H4.39844C5.21094 76.7734 5.88802 76.6042 6.42969 76.2656C6.97135 75.9219 7.3776 75.4427 7.64844 74.8281C7.92448 74.2083 8.0625 73.4844 8.0625 72.6562V71.9609C8.0625 71.3099 7.98438 70.7318 7.82812 70.2266C7.67188 69.7161 7.44271 69.2865 7.14062 68.9375C6.83854 68.5833 6.46875 68.3151 6.03125 68.1328C5.59896 67.9505 5.10156 67.8594 4.53906 67.8594H1.97656V66.625H4.53906C5.28385 66.625 5.96354 66.75 6.57812 67C7.19271 67.2448 7.72135 67.6016 8.16406 68.0703C8.61198 68.5339 8.95573 69.0964 9.19531 69.7578C9.4349 70.4141 9.55469 71.1536 9.55469 71.9766V72.6562C9.55469 73.4792 9.4349 74.2214 9.19531 74.8828C8.95573 75.5391 8.60938 76.099 8.15625 76.5625C7.70833 77.026 7.16667 77.3828 6.53125 77.6328C5.90104 77.8776 5.1901 78 4.39844 78ZM2.82812 66.625V78H1.32031V66.625H2.82812ZM16.5859 76.5547V72.2031C16.5859 71.8698 16.5182 71.5807 16.3828 71.3359C16.2526 71.0859 16.0547 70.8932 15.7891 70.7578C15.5234 70.6224 15.1953 70.5547 14.8047 70.5547C14.4401 70.5547 14.1198 70.6172 13.8438 70.7422C13.5729 70.8672 13.3594 71.0312 13.2031 71.2344C13.0521 71.4375 12.9766 71.6562 12.9766 71.8906H11.5312C11.5312 71.5885 11.6094 71.2891 11.7656 70.9922C11.9219 70.6953 12.1458 70.4271 12.4375 70.1875C12.7344 69.9427 13.0885 69.75 13.5 69.6094C13.9167 69.4635 14.3802 69.3906 14.8906 69.3906C15.5052 69.3906 16.0469 69.4948 16.5156 69.7031C16.9896 69.9115 17.3594 70.2266 17.625 70.6484C17.8958 71.0651 18.0312 71.5885 18.0312 72.2188V76.1562C18.0312 76.4375 18.0547 76.737 18.1016 77.0547C18.1536 77.3724 18.2292 77.6458 18.3281 77.875V78H16.8203C16.7474 77.8333 16.6901 77.612 16.6484 77.3359C16.6068 77.0547 16.5859 76.7943 16.5859 76.5547ZM16.8359 72.875L16.8516 73.8906H15.3906C14.9792 73.8906 14.612 73.9245 14.2891 73.9922C13.9661 74.0547 13.6953 74.151 13.4766 74.2812C13.2578 74.4115 13.0911 74.5755 12.9766 74.7734C12.862 74.9661 12.8047 75.1927 12.8047 75.4531C12.8047 75.7188 12.8646 75.9609 12.9844 76.1797C13.1042 76.3984 13.2839 76.5729 13.5234 76.7031C13.7682 76.8281 14.0677 76.8906 14.4219 76.8906C14.8646 76.8906 15.2552 76.7969 15.5938 76.6094C15.9323 76.4219 16.2005 76.1927 16.3984 75.9219C16.6016 75.651 16.7109 75.388 16.7266 75.1328L17.3438 75.8281C17.3073 76.0469 17.2083 76.2891 17.0469 76.5547C16.8854 76.8203 16.6693 77.0755 16.3984 77.3203C16.1328 77.5599 15.8151 77.7604 15.4453 77.9219C15.0807 78.0781 14.6693 78.1562 14.2109 78.1562C13.638 78.1562 13.1354 78.0443 12.7031 77.8203C12.276 77.5964 11.9427 77.2969 11.7031 76.9219C11.4688 76.5417 11.3516 76.1172 11.3516 75.6484C11.3516 75.1953 11.4401 74.7969 11.6172 74.4531C11.7943 74.1042 12.0495 73.8151 12.3828 73.5859C12.7161 73.3516 13.1172 73.1745 13.5859 73.0547C14.0547 72.9349 14.5781 72.875 15.1562 72.875H16.8359ZM21.75 71.3516V78H20.3047V69.5469H21.6719L21.75 71.3516ZM21.4062 73.4531L20.8047 73.4297C20.8099 72.8516 20.8958 72.3177 21.0625 71.8281C21.2292 71.3333 21.4635 70.9036 21.7656 70.5391C22.0677 70.1745 22.4271 69.8932 22.8438 69.6953C23.2656 69.4922 23.7318 69.3906 24.2422 69.3906C24.6589 69.3906 25.0339 69.4479 25.3672 69.5625C25.7005 69.6719 25.9844 69.849 26.2188 70.0938C26.4583 70.3385 26.6406 70.6562 26.7656 71.0469C26.8906 71.4323 26.9531 71.9036 26.9531 72.4609V78H25.5V72.4453C25.5 72.0026 25.4349 71.6484 25.3047 71.3828C25.1745 71.112 24.9844 70.9167 24.7344 70.7969C24.4844 70.6719 24.1771 70.6094 23.8125 70.6094C23.4531 70.6094 23.125 70.6849 22.8281 70.8359C22.5365 70.987 22.2839 71.1953 22.0703 71.4609C21.862 71.7266 21.6979 72.0312 21.5781 72.375C21.4635 72.7135 21.4062 73.0729 21.4062 73.4531ZM34.0703 75.7578C34.0703 75.5495 34.0234 75.3568 33.9297 75.1797C33.8411 74.9974 33.6562 74.8333 33.375 74.6875C33.099 74.5365 32.6823 74.4062 32.125 74.2969C31.6562 74.1979 31.2318 74.0807 30.8516 73.9453C30.4766 73.8099 30.1562 73.6458 29.8906 73.4531C29.6302 73.2604 29.4297 73.0339 29.2891 72.7734C29.1484 72.513 29.0781 72.2083 29.0781 71.8594C29.0781 71.526 29.151 71.2109 29.2969 70.9141C29.4479 70.6172 29.6589 70.3542 29.9297 70.125C30.2057 69.8958 30.5365 69.7161 30.9219 69.5859C31.3073 69.4557 31.737 69.3906 32.2109 69.3906C32.888 69.3906 33.4661 69.5104 33.9453 69.75C34.4245 69.9896 34.7917 70.3099 35.0469 70.7109C35.3021 71.1068 35.4297 71.5469 35.4297 72.0312H33.9844C33.9844 71.7969 33.9141 71.5703 33.7734 71.3516C33.638 71.1276 33.4375 70.9427 33.1719 70.7969C32.9115 70.651 32.5911 70.5781 32.2109 70.5781C31.8099 70.5781 31.4844 70.6406 31.2344 70.7656C30.9896 70.8854 30.8099 71.0391 30.6953 71.2266C30.5859 71.4141 30.5312 71.612 30.5312 71.8203C30.5312 71.9766 30.5573 72.1172 30.6094 72.2422C30.6667 72.362 30.7656 72.474 30.9062 72.5781C31.0469 72.6771 31.2448 72.7708 31.5 72.8594C31.7552 72.9479 32.0807 73.0365 32.4766 73.125C33.1693 73.2812 33.7396 73.4688 34.1875 73.6875C34.6354 73.9062 34.9688 74.1745 35.1875 74.4922C35.4062 74.8099 35.5156 75.1953 35.5156 75.6484C35.5156 76.0182 35.4375 76.3568 35.2812 76.6641C35.1302 76.9714 34.9089 77.237 34.6172 77.4609C34.3307 77.6797 33.987 77.8516 33.5859 77.9766C33.1901 78.0964 32.7448 78.1562 32.25 78.1562C31.5052 78.1562 30.875 78.0234 30.3594 77.7578C29.8438 77.4922 29.4531 77.1484 29.1875 76.7266C28.9219 76.3047 28.7891 75.8594 28.7891 75.3906H30.2422C30.263 75.7865 30.3776 76.1016 30.5859 76.3359C30.7943 76.5651 31.0495 76.7292 31.3516 76.8281C31.6536 76.9219 31.9531 76.9688 32.25 76.9688C32.6458 76.9688 32.9766 76.9167 33.2422 76.8125C33.513 76.7083 33.7188 76.5651 33.8594 76.3828C34 76.2005 34.0703 75.9922 34.0703 75.7578ZM38.8672 66V78H37.4141V66H38.8672ZM44.0312 69.5469L40.3438 73.4922L38.2812 75.6328L38.1641 74.0938L39.6406 72.3281L42.2656 69.5469H44.0312ZM42.7109 78L39.6953 73.9688L40.4453 72.6797L44.4141 78H42.7109ZM50.1875 66.625H51.6484L55.375 75.8984L59.0938 66.625H60.5625L55.9375 78H54.7969L50.1875 66.625ZM49.7109 66.625H51L51.2109 73.5625V78H49.7109V66.625ZM59.7422 66.625H61.0312V78H59.5312V73.5625L59.7422 66.625ZM68.2109 76.5703V72.375C68.2109 72 68.1458 71.6797 68.0156 71.4141C67.8906 71.1432 67.7031 70.9375 67.4531 70.7969C67.2031 70.651 66.8984 70.5781 66.5391 70.5781C66.1536 70.5781 65.8177 70.6458 65.5312 70.7812C65.2448 70.9167 65.0234 71.0964 64.8672 71.3203C64.7109 71.5443 64.6328 71.7917 64.6328 72.0625L63.1953 71.9219C63.1953 71.5573 63.276 71.2214 63.4375 70.9141C63.599 70.6068 63.8255 70.3385 64.1172 70.1094C64.4141 69.8802 64.7656 69.7031 65.1719 69.5781C65.5833 69.4531 66.0391 69.3906 66.5391 69.3906C67.1536 69.3906 67.6901 69.5026 68.1484 69.7266C68.612 69.9505 68.9714 70.2839 69.2266 70.7266C69.487 71.1693 69.6172 71.724 69.6172 72.3906V76.2969L68.2109 76.5703ZM68.5312 73.0312V74.125H66.4922C66.0391 74.125 65.6589 74.1979 65.3516 74.3438C65.0443 74.4844 64.8125 74.6719 64.6562 74.9062C64.5 75.1354 64.4219 75.3854 64.4219 75.6562C64.4219 75.9062 64.4792 76.1328 64.5938 76.3359C64.7135 76.5339 64.8906 76.6927 65.125 76.8125C65.3646 76.9271 65.6667 76.9844 66.0312 76.9844C66.3125 76.9844 66.599 76.9323 66.8906 76.8281C67.1875 76.7188 67.4583 76.5807 67.7031 76.4141C67.9531 76.2422 68.1536 76.0625 68.3047 75.875C68.4609 75.6875 68.5417 75.513 68.5469 75.3516L69.2969 76.4766C69.1562 76.7318 68.9323 76.9896 68.625 77.25C68.3229 77.5104 67.9323 77.7292 67.4531 77.9062C66.9792 78.0781 66.4115 78.1641 65.75 78.1641C65.1562 78.1641 64.651 78.0599 64.2344 77.8516C63.8229 77.6432 63.5104 77.349 63.2969 76.9688C63.0833 76.5833 62.9766 76.1354 62.9766 75.625C62.9766 75.2135 63.0495 74.849 63.1953 74.5312C63.3464 74.2083 63.5677 73.9375 63.8594 73.7188C64.1562 73.4948 64.5234 73.3255 64.9609 73.2109C65.3984 73.0911 65.9036 73.0312 66.4766 73.0312H68.5312ZM72.2266 78.1641C71.5859 78.1641 71.0208 78.0599 70.5312 77.8516C70.0417 77.6432 69.6302 77.3516 69.2969 76.9766C68.9635 76.5964 68.7109 76.1484 68.5391 75.6328C68.3672 75.1172 68.2812 74.5521 68.2812 73.9375V73.5938C68.2812 72.974 68.3698 72.4089 68.5469 71.8984C68.7292 71.3828 68.9818 70.9375 69.3047 70.5625C69.6328 70.1875 70.0156 69.8984 70.4531 69.6953C70.8906 69.487 71.3672 69.3854 71.8828 69.3906C72.4453 69.3906 72.9401 69.4792 73.3672 69.6562C73.7995 69.8281 74.1615 70.0807 74.4531 70.4141C74.7448 70.7422 74.9635 71.1406 75.1094 71.6094C75.2604 72.0781 75.3359 72.6042 75.3359 73.1875V74.1094H69.0547V73H73.8828V72.7578C73.8828 72.362 73.8177 72 73.6875 71.6719C73.5573 71.3438 73.3464 71.0807 73.0547 70.8828C72.763 70.6797 72.3724 70.5781 71.8828 70.5781C71.5234 70.5781 71.2057 70.6562 70.9297 70.8125C70.6536 70.9688 70.4193 71.1849 70.2266 71.4609C70.0391 71.737 69.8958 72.0573 69.7969 72.4219C69.6979 72.7865 69.6484 73.1771 69.6484 73.5938V73.9375C69.6484 74.3594 69.6979 74.7552 69.7969 75.125C69.8958 75.4896 70.0495 75.8125 70.2578 76.0938C70.4661 76.3698 70.7318 76.5859 71.0547 76.7422C71.3828 76.8984 71.7734 76.9766 72.2266 76.9766C72.8464 76.9766 73.3464 76.8828 73.7266 76.6953C74.1068 76.5026 74.4271 76.3177 74.6875 76.1406L75.1953 77.2031C75.0807 77.2917 74.8958 77.4141 74.6406 77.5703C74.3906 77.7214 74.0651 77.8594 73.6641 77.9844C73.263 78.1042 72.7839 78.1641 72.2266 78.1641ZM82.4531 69.5469H83.7656V77.8203C83.7656 78.5651 83.6146 79.2005 83.3125 79.7266C83.0104 80.2526 82.5885 80.651 82.0469 80.9219C81.5104 81.1979 80.8906 81.3359 80.1875 81.3359C79.8958 81.3359 79.5521 81.2891 79.1562 81.1953C78.7656 81.1068 78.3802 80.9531 78 80.7344C77.625 80.5208 77.3099 80.2318 77.0547 79.8672L77.8125 79.0078C78.1667 79.4349 78.5365 79.7318 78.9219 79.8984C79.3125 80.0651 79.6979 80.1484 80.0781 80.1484C80.5365 80.1484 80.9323 80.0625 81.2656 79.8906C81.599 79.7188 81.8568 79.4635 82.0391 79.125C82.2266 78.7917 82.3203 78.3802 82.3203 77.8906V71.4062L82.4531 69.5469ZM76.6328 73.8672V73.7031C76.6328 73.0573 76.7083 72.4714 76.8594 71.9453C77.0156 71.4141 77.237 70.9583 77.5234 70.5781C77.8151 70.1979 78.1667 69.9062 78.5781 69.7031C78.9896 69.4948 79.4531 69.3906 79.9688 69.3906C80.5 69.3906 80.9635 69.4844 81.3594 69.6719C81.7604 69.8542 82.099 70.1224 82.375 70.4766C82.6562 70.8255 82.8776 71.2474 83.0391 71.7422C83.2005 72.237 83.3125 72.7969 83.375 73.4219V74.1406C83.3177 74.7604 83.2057 75.3177 83.0391 75.8125C82.8776 76.3073 82.6562 76.7292 82.375 77.0781C82.099 77.4271 81.7604 77.6953 81.3594 77.8828C80.9583 78.0651 80.4896 78.1562 79.9531 78.1562C79.4479 78.1562 78.9896 78.0495 78.5781 77.8359C78.1719 77.6224 77.8229 77.3229 77.5312 76.9375C77.2396 76.5521 77.0156 76.099 76.8594 75.5781C76.7083 75.0521 76.6328 74.4818 76.6328 73.8672ZM78.0781 73.7031V73.8672C78.0781 74.2891 78.1198 74.6849 78.2031 75.0547C78.2917 75.4245 78.4245 75.75 78.6016 76.0312C78.7839 76.3125 79.0156 76.5339 79.2969 76.6953C79.5781 76.8516 79.9141 76.9297 80.3047 76.9297C80.7839 76.9297 81.1797 76.8281 81.4922 76.625C81.8047 76.4219 82.0521 76.1536 82.2344 75.8203C82.4219 75.487 82.5677 75.125 82.6719 74.7344V72.8516C82.6146 72.5651 82.526 72.2891 82.4062 72.0234C82.2917 71.7526 82.1406 71.513 81.9531 71.3047C81.7708 71.0911 81.5443 70.9219 81.2734 70.7969C81.0026 70.6719 80.6849 70.6094 80.3203 70.6094C79.9245 70.6094 79.5833 70.6927 79.2969 70.8594C79.0156 71.0208 78.7839 71.2448 78.6016 71.5312C78.4245 71.8125 78.2917 72.1406 78.2031 72.5156C78.1198 72.8854 78.0781 73.2812 78.0781 73.7031ZM87.5312 66V78H86.0781V66H87.5312ZM93.3594 78.1562C92.7708 78.1562 92.237 78.0573 91.7578 77.8594C91.2839 77.6562 90.875 77.3724 90.5312 77.0078C90.1927 76.6432 89.9323 76.2109 89.75 75.7109C89.5677 75.2109 89.4766 74.6641 89.4766 74.0703V73.7422C89.4766 73.0547 89.5781 72.4427 89.7812 71.9062C89.9844 71.3646 90.2604 70.9062 90.6094 70.5312C90.9583 70.1562 91.3542 69.8724 91.7969 69.6797C92.2396 69.487 92.6979 69.3906 93.1719 69.3906C93.776 69.3906 94.2969 69.4948 94.7344 69.7031C95.1771 69.9115 95.5391 70.2031 95.8203 70.5781C96.1016 70.9479 96.3099 71.3854 96.4453 71.8906C96.5807 72.3906 96.6484 72.9375 96.6484 73.5312V74.1797H90.3359V73H95.2031V72.8906C95.1823 72.5156 95.1042 72.151 94.9688 71.7969C94.8385 71.4427 94.6302 71.151 94.3438 70.9219C94.0573 70.6927 93.6667 70.5781 93.1719 70.5781C92.8438 70.5781 92.5417 70.6484 92.2656 70.7891C91.9896 70.9245 91.7526 71.1276 91.5547 71.3984C91.3568 71.6693 91.2031 72 91.0938 72.3906C90.9844 72.7812 90.9297 73.2318 90.9297 73.7422V74.0703C90.9297 74.4714 90.9844 74.849 91.0938 75.2031C91.2083 75.5521 91.3724 75.8594 91.5859 76.125C91.8047 76.3906 92.0677 76.599 92.375 76.75C92.6875 76.901 93.0417 76.9766 93.4375 76.9766C93.9479 76.9766 94.3802 76.8724 94.7344 76.6641C95.0885 76.4557 95.3984 76.1771 95.6641 75.8281L96.5391 76.5234C96.3568 76.7995 96.125 77.0625 95.8438 77.3125C95.5625 77.5625 95.2161 77.7656 94.8047 77.9219C94.3984 78.0781 93.9167 78.1562 93.3594 78.1562ZM99.7812 70.875V78H98.3359V69.5469H99.7422L99.7812 70.875ZM102.422 69.5L102.414 70.8438C102.294 70.8177 102.18 70.8021 102.07 70.7969C101.966 70.7865 101.846 70.7812 101.711 70.7812C101.378 70.7812 101.083 70.8333 100.828 70.9375C100.573 71.0417 100.357 71.1875 100.18 71.375C100.003 71.5625 99.862 71.7865 99.7578 72.0469C99.6589 72.3021 99.5938 72.5833 99.5625 72.8906L99.1562 73.125C99.1562 72.6146 99.2057 72.1354 99.3047 71.6875C99.4089 71.2396 99.5677 70.8438 99.7812 70.5C99.9948 70.151 100.266 69.8802 100.594 69.6875C100.927 69.4896 101.323 69.3906 101.781 69.3906C101.885 69.3906 102.005 69.4036 102.141 69.4297C102.276 69.4505 102.37 69.474 102.422 69.5ZM114.008 75.125C114.008 74.8594 113.966 74.625 113.883 74.4219C113.805 74.2135 113.664 74.026 113.461 73.8594C113.263 73.6927 112.987 73.5339 112.633 73.3828C112.284 73.2318 111.841 73.0781 111.305 72.9219C110.742 72.7552 110.234 72.5703 109.781 72.3672C109.328 72.1589 108.94 71.9219 108.617 71.6562C108.294 71.3906 108.047 71.0859 107.875 70.7422C107.703 70.3984 107.617 70.0052 107.617 69.5625C107.617 69.1198 107.708 68.7109 107.891 68.3359C108.073 67.9609 108.333 67.6354 108.672 67.3594C109.016 67.0781 109.424 66.8594 109.898 66.7031C110.372 66.5469 110.901 66.4688 111.484 66.4688C112.339 66.4688 113.062 66.6328 113.656 66.9609C114.255 67.2839 114.711 67.7083 115.023 68.2344C115.336 68.7552 115.492 69.3125 115.492 69.9062H113.992C113.992 69.4792 113.901 69.1016 113.719 68.7734C113.536 68.4401 113.26 68.1797 112.891 67.9922C112.521 67.7995 112.052 67.7031 111.484 67.7031C110.948 67.7031 110.505 67.7839 110.156 67.9453C109.807 68.1068 109.547 68.3255 109.375 68.6016C109.208 68.8776 109.125 69.1927 109.125 69.5469C109.125 69.7865 109.174 70.0052 109.273 70.2031C109.378 70.3958 109.536 70.5755 109.75 70.7422C109.969 70.9089 110.245 71.0625 110.578 71.2031C110.917 71.3438 111.32 71.4792 111.789 71.6094C112.435 71.7917 112.992 71.9948 113.461 72.2188C113.93 72.4427 114.315 72.6953 114.617 72.9766C114.924 73.2526 115.151 73.5677 115.297 73.9219C115.448 74.2708 115.523 74.6667 115.523 75.1094C115.523 75.5729 115.43 75.9922 115.242 76.3672C115.055 76.7422 114.786 77.0625 114.438 77.3281C114.089 77.5938 113.669 77.7995 113.18 77.9453C112.695 78.0859 112.154 78.1562 111.555 78.1562C111.029 78.1562 110.51 78.0833 110 77.9375C109.495 77.7917 109.034 77.5729 108.617 77.2812C108.206 76.9896 107.875 76.6302 107.625 76.2031C107.38 75.7708 107.258 75.2708 107.258 74.7031H108.758C108.758 75.0938 108.833 75.4297 108.984 75.7109C109.135 75.987 109.341 76.2161 109.602 76.3984C109.867 76.5807 110.167 76.7161 110.5 76.8047C110.839 76.888 111.19 76.9297 111.555 76.9297C112.081 76.9297 112.526 76.8568 112.891 76.7109C113.255 76.5651 113.531 76.3568 113.719 76.0859C113.911 75.8151 114.008 75.4948 114.008 75.125ZM122.211 76.5547V72.2031C122.211 71.8698 122.143 71.5807 122.008 71.3359C121.878 71.0859 121.68 70.8932 121.414 70.7578C121.148 70.6224 120.82 70.5547 120.43 70.5547C120.065 70.5547 119.745 70.6172 119.469 70.7422C119.198 70.8672 118.984 71.0312 118.828 71.2344C118.677 71.4375 118.602 71.6562 118.602 71.8906H117.156C117.156 71.5885 117.234 71.2891 117.391 70.9922C117.547 70.6953 117.771 70.4271 118.062 70.1875C118.359 69.9427 118.714 69.75 119.125 69.6094C119.542 69.4635 120.005 69.3906 120.516 69.3906C121.13 69.3906 121.672 69.4948 122.141 69.7031C122.615 69.9115 122.984 70.2266 123.25 70.6484C123.521 71.0651 123.656 71.5885 123.656 72.2188V76.1562C123.656 76.4375 123.68 76.737 123.727 77.0547C123.779 77.3724 123.854 77.6458 123.953 77.875V78H122.445C122.372 77.8333 122.315 77.612 122.273 77.3359C122.232 77.0547 122.211 76.7943 122.211 76.5547ZM122.461 72.875L122.477 73.8906H121.016C120.604 73.8906 120.237 73.9245 119.914 73.9922C119.591 74.0547 119.32 74.151 119.102 74.2812C118.883 74.4115 118.716 74.5755 118.602 74.7734C118.487 74.9661 118.43 75.1927 118.43 75.4531C118.43 75.7188 118.49 75.9609 118.609 76.1797C118.729 76.3984 118.909 76.5729 119.148 76.7031C119.393 76.8281 119.693 76.8906 120.047 76.8906C120.49 76.8906 120.88 76.7969 121.219 76.6094C121.557 76.4219 121.826 76.1927 122.023 75.9219C122.227 75.651 122.336 75.388 122.352 75.1328L122.969 75.8281C122.932 76.0469 122.833 76.2891 122.672 76.5547C122.51 76.8203 122.294 77.0755 122.023 77.3203C121.758 77.5599 121.44 77.7604 121.07 77.9219C120.706 78.0781 120.294 78.1562 119.836 78.1562C119.263 78.1562 118.76 78.0443 118.328 77.8203C117.901 77.5964 117.568 77.2969 117.328 76.9219C117.094 76.5417 116.977 76.1172 116.977 75.6484C116.977 75.1953 117.065 74.7969 117.242 74.4531C117.419 74.1042 117.674 73.8151 118.008 73.5859C118.341 73.3516 118.742 73.1745 119.211 73.0547C119.68 72.9349 120.203 72.875 120.781 72.875H122.461ZM127.367 71.2266V78H125.914V69.5469H127.289L127.367 71.2266ZM127.07 73.4531L126.398 73.4297C126.404 72.8516 126.479 72.3177 126.625 71.8281C126.771 71.3333 126.987 70.9036 127.273 70.5391C127.56 70.1745 127.917 69.8932 128.344 69.6953C128.771 69.4922 129.266 69.3906 129.828 69.3906C130.224 69.3906 130.589 69.4479 130.922 69.5625C131.255 69.6719 131.544 69.8464 131.789 70.0859C132.034 70.3255 132.224 70.6328 132.359 71.0078C132.495 71.3828 132.562 71.8359 132.562 72.3672V78H131.117V72.4375C131.117 71.9948 131.042 71.6406 130.891 71.375C130.745 71.1094 130.536 70.9167 130.266 70.7969C129.995 70.6719 129.677 70.6094 129.312 70.6094C128.885 70.6094 128.529 70.6849 128.242 70.8359C127.956 70.987 127.727 71.1953 127.555 71.4609C127.383 71.7266 127.258 72.0312 127.18 72.375C127.107 72.7135 127.07 73.0729 127.07 73.4531ZM132.547 72.6562L131.578 72.9531C131.583 72.4896 131.659 72.0443 131.805 71.6172C131.956 71.1901 132.172 70.8099 132.453 70.4766C132.74 70.1432 133.091 69.8802 133.508 69.6875C133.924 69.4896 134.401 69.3906 134.938 69.3906C135.391 69.3906 135.792 69.4505 136.141 69.5703C136.495 69.6901 136.792 69.875 137.031 70.125C137.276 70.3698 137.461 70.6849 137.586 71.0703C137.711 71.4557 137.773 71.9141 137.773 72.4453V78H136.32V72.4297C136.32 71.9557 136.245 71.5885 136.094 71.3281C135.948 71.0625 135.74 70.8776 135.469 70.7734C135.203 70.6641 134.885 70.6094 134.516 70.6094C134.198 70.6094 133.917 70.6641 133.672 70.7734C133.427 70.8828 133.221 71.0339 133.055 71.2266C132.888 71.4141 132.76 71.6302 132.672 71.875C132.589 72.1198 132.547 72.3802 132.547 72.6562ZM141.398 71.2266V78H139.945V69.5469H141.32L141.398 71.2266ZM141.102 73.4531L140.43 73.4297C140.435 72.8516 140.51 72.3177 140.656 71.8281C140.802 71.3333 141.018 70.9036 141.305 70.5391C141.591 70.1745 141.948 69.8932 142.375 69.6953C142.802 69.4922 143.297 69.3906 143.859 69.3906C144.255 69.3906 144.62 69.4479 144.953 69.5625C145.286 69.6719 145.576 69.8464 145.82 70.0859C146.065 70.3255 146.255 70.6328 146.391 71.0078C146.526 71.3828 146.594 71.8359 146.594 72.3672V78H145.148V72.4375C145.148 71.9948 145.073 71.6406 144.922 71.375C144.776 71.1094 144.568 70.9167 144.297 70.7969C144.026 70.6719 143.708 70.6094 143.344 70.6094C142.917 70.6094 142.56 70.6849 142.273 70.8359C141.987 70.987 141.758 71.1953 141.586 71.4609C141.414 71.7266 141.289 72.0312 141.211 72.375C141.138 72.7135 141.102 73.0729 141.102 73.4531ZM146.578 72.6562L145.609 72.9531C145.615 72.4896 145.69 72.0443 145.836 71.6172C145.987 71.1901 146.203 70.8099 146.484 70.4766C146.771 70.1432 147.122 69.8802 147.539 69.6875C147.956 69.4896 148.432 69.3906 148.969 69.3906C149.422 69.3906 149.823 69.4505 150.172 69.5703C150.526 69.6901 150.823 69.875 151.062 70.125C151.307 70.3698 151.492 70.6849 151.617 71.0703C151.742 71.4557 151.805 71.9141 151.805 72.4453V78H150.352V72.4297C150.352 71.9557 150.276 71.5885 150.125 71.3281C149.979 71.0625 149.771 70.8776 149.5 70.7734C149.234 70.6641 148.917 70.6094 148.547 70.6094C148.229 70.6094 147.948 70.6641 147.703 70.7734C147.458 70.8828 147.253 71.0339 147.086 71.2266C146.919 71.4141 146.792 71.6302 146.703 71.875C146.62 72.1198 146.578 72.3802 146.578 72.6562ZM157.5 78.1562C156.911 78.1562 156.378 78.0573 155.898 77.8594C155.424 77.6562 155.016 77.3724 154.672 77.0078C154.333 76.6432 154.073 76.2109 153.891 75.7109C153.708 75.2109 153.617 74.6641 153.617 74.0703V73.7422C153.617 73.0547 153.719 72.4427 153.922 71.9062C154.125 71.3646 154.401 70.9062 154.75 70.5312C155.099 70.1562 155.495 69.8724 155.938 69.6797C156.38 69.487 156.839 69.3906 157.312 69.3906C157.917 69.3906 158.438 69.4948 158.875 69.7031C159.318 69.9115 159.68 70.2031 159.961 70.5781C160.242 70.9479 160.451 71.3854 160.586 71.8906C160.721 72.3906 160.789 72.9375 160.789 73.5312V74.1797H154.477V73H159.344V72.8906C159.323 72.5156 159.245 72.151 159.109 71.7969C158.979 71.4427 158.771 71.151 158.484 70.9219C158.198 70.6927 157.807 70.5781 157.312 70.5781C156.984 70.5781 156.682 70.6484 156.406 70.7891C156.13 70.9245 155.893 71.1276 155.695 71.3984C155.497 71.6693 155.344 72 155.234 72.3906C155.125 72.7812 155.07 73.2318 155.07 73.7422V74.0703C155.07 74.4714 155.125 74.849 155.234 75.2031C155.349 75.5521 155.513 75.8594 155.727 76.125C155.945 76.3906 156.208 76.599 156.516 76.75C156.828 76.901 157.182 76.9766 157.578 76.9766C158.089 76.9766 158.521 76.8724 158.875 76.6641C159.229 76.4557 159.539 76.1771 159.805 75.8281L160.68 76.5234C160.497 76.7995 160.266 77.0625 159.984 77.3125C159.703 77.5625 159.357 77.7656 158.945 77.9219C158.539 78.0781 158.057 78.1562 157.5 78.1562ZM163.922 71.3516V78H162.477V69.5469H163.844L163.922 71.3516ZM163.578 73.4531L162.977 73.4297C162.982 72.8516 163.068 72.3177 163.234 71.8281C163.401 71.3333 163.635 70.9036 163.938 70.5391C164.24 70.1745 164.599 69.8932 165.016 69.6953C165.438 69.4922 165.904 69.3906 166.414 69.3906C166.831 69.3906 167.206 69.4479 167.539 69.5625C167.872 69.6719 168.156 69.849 168.391 70.0938C168.63 70.3385 168.812 70.6562 168.938 71.0469C169.062 71.4323 169.125 71.9036 169.125 72.4609V78H167.672V72.4453C167.672 72.0026 167.607 71.6484 167.477 71.3828C167.346 71.112 167.156 70.9167 166.906 70.7969C166.656 70.6719 166.349 70.6094 165.984 70.6094C165.625 70.6094 165.297 70.6849 165 70.8359C164.708 70.987 164.456 71.1953 164.242 71.4609C164.034 71.7266 163.87 72.0312 163.75 72.375C163.635 72.7135 163.578 73.0729 163.578 73.4531ZM176.242 75.7578C176.242 75.5495 176.195 75.3568 176.102 75.1797C176.013 74.9974 175.828 74.8333 175.547 74.6875C175.271 74.5365 174.854 74.4062 174.297 74.2969C173.828 74.1979 173.404 74.0807 173.023 73.9453C172.648 73.8099 172.328 73.6458 172.062 73.4531C171.802 73.2604 171.602 73.0339 171.461 72.7734C171.32 72.513 171.25 72.2083 171.25 71.8594C171.25 71.526 171.323 71.2109 171.469 70.9141C171.62 70.6172 171.831 70.3542 172.102 70.125C172.378 69.8958 172.708 69.7161 173.094 69.5859C173.479 69.4557 173.909 69.3906 174.383 69.3906C175.06 69.3906 175.638 69.5104 176.117 69.75C176.596 69.9896 176.964 70.3099 177.219 70.7109C177.474 71.1068 177.602 71.5469 177.602 72.0312H176.156C176.156 71.7969 176.086 71.5703 175.945 71.3516C175.81 71.1276 175.609 70.9427 175.344 70.7969C175.083 70.651 174.763 70.5781 174.383 70.5781C173.982 70.5781 173.656 70.6406 173.406 70.7656C173.161 70.8854 172.982 71.0391 172.867 71.2266C172.758 71.4141 172.703 71.612 172.703 71.8203C172.703 71.9766 172.729 72.1172 172.781 72.2422C172.839 72.362 172.938 72.474 173.078 72.5781C173.219 72.6771 173.417 72.7708 173.672 72.8594C173.927 72.9479 174.253 73.0365 174.648 73.125C175.341 73.2812 175.911 73.4688 176.359 73.6875C176.807 73.9062 177.141 74.1745 177.359 74.4922C177.578 74.8099 177.688 75.1953 177.688 75.6484C177.688 76.0182 177.609 76.3568 177.453 76.6641C177.302 76.9714 177.081 77.237 176.789 77.4609C176.503 77.6797 176.159 77.8516 175.758 77.9766C175.362 78.0964 174.917 78.1562 174.422 78.1562C173.677 78.1562 173.047 78.0234 172.531 77.7578C172.016 77.4922 171.625 77.1484 171.359 76.7266C171.094 76.3047 170.961 75.8594 170.961 75.3906H172.414C172.435 75.7865 172.549 76.1016 172.758 76.3359C172.966 76.5651 173.221 76.7292 173.523 76.8281C173.826 76.9219 174.125 76.9688 174.422 76.9688C174.818 76.9688 175.148 76.9167 175.414 76.8125C175.685 76.7083 175.891 76.5651 176.031 76.3828C176.172 76.2005 176.242 75.9922 176.242 75.7578ZM181.156 66V78H179.703V66H181.156ZM188.648 76.0469V69.5469H190.102V78H188.719L188.648 76.0469ZM188.922 74.2656L189.523 74.25C189.523 74.8125 189.464 75.3333 189.344 75.8125C189.229 76.2865 189.042 76.6979 188.781 77.0469C188.521 77.3958 188.18 77.6693 187.758 77.8672C187.336 78.0599 186.823 78.1562 186.219 78.1562C185.807 78.1562 185.43 78.0964 185.086 77.9766C184.747 77.8568 184.456 77.6719 184.211 77.4219C183.966 77.1719 183.776 76.8464 183.641 76.4453C183.51 76.0443 183.445 75.5625 183.445 75V69.5469H184.891V75.0156C184.891 75.3958 184.932 75.7109 185.016 75.9609C185.104 76.2057 185.221 76.401 185.367 76.5469C185.518 76.6875 185.685 76.7865 185.867 76.8438C186.055 76.901 186.247 76.9297 186.445 76.9297C187.06 76.9297 187.547 76.8125 187.906 76.5781C188.266 76.3385 188.523 76.0182 188.68 75.6172C188.841 75.2109 188.922 74.7604 188.922 74.2656ZM195.844 69.5469V70.6562H191.273V69.5469H195.844ZM192.82 67.4922H194.266V75.9062C194.266 76.1927 194.31 76.4089 194.398 76.5547C194.487 76.7005 194.602 76.7969 194.742 76.8438C194.883 76.8906 195.034 76.9141 195.195 76.9141C195.315 76.9141 195.44 76.9036 195.57 76.8828C195.706 76.8568 195.807 76.8359 195.875 76.8203L195.883 78C195.768 78.0365 195.617 78.0703 195.43 78.1016C195.247 78.138 195.026 78.1562 194.766 78.1562C194.411 78.1562 194.086 78.0859 193.789 77.9453C193.492 77.8047 193.255 77.5703 193.078 77.2422C192.906 76.9089 192.82 76.4609 192.82 75.8984V67.4922ZM198.984 71.3516V78H197.539V69.5469H198.906L198.984 71.3516ZM198.641 73.4531L198.039 73.4297C198.044 72.8516 198.13 72.3177 198.297 71.8281C198.464 71.3333 198.698 70.9036 199 70.5391C199.302 70.1745 199.661 69.8932 200.078 69.6953C200.5 69.4922 200.966 69.3906 201.477 69.3906C201.893 69.3906 202.268 69.4479 202.602 69.5625C202.935 69.6719 203.219 69.849 203.453 70.0938C203.693 70.3385 203.875 70.6562 204 71.0469C204.125 71.4323 204.188 71.9036 204.188 72.4609V78H202.734V72.4453C202.734 72.0026 202.669 71.6484 202.539 71.3828C202.409 71.112 202.219 70.9167 201.969 70.7969C201.719 70.6719 201.411 70.6094 201.047 70.6094C200.688 70.6094 200.359 70.6849 200.062 70.8359C199.771 70.987 199.518 71.1953 199.305 71.4609C199.096 71.7266 198.932 72.0312 198.812 72.375C198.698 72.7135 198.641 73.0729 198.641 73.4531ZM207.953 69.5469V78H206.5V69.5469H207.953ZM206.391 67.3047C206.391 67.0703 206.461 66.8724 206.602 66.7109C206.747 66.5495 206.961 66.4688 207.242 66.4688C207.518 66.4688 207.729 66.5495 207.875 66.7109C208.026 66.8724 208.102 67.0703 208.102 67.3047C208.102 67.5286 208.026 67.7214 207.875 67.8828C207.729 68.0391 207.518 68.1172 207.242 68.1172C206.961 68.1172 206.747 68.0391 206.602 67.8828C206.461 67.7214 206.391 67.5286 206.391 67.3047ZM211.719 71.3516V78H210.273V69.5469H211.641L211.719 71.3516ZM211.375 73.4531L210.773 73.4297C210.779 72.8516 210.865 72.3177 211.031 71.8281C211.198 71.3333 211.432 70.9036 211.734 70.5391C212.036 70.1745 212.396 69.8932 212.812 69.6953C213.234 69.4922 213.701 69.3906 214.211 69.3906C214.628 69.3906 215.003 69.4479 215.336 69.5625C215.669 69.6719 215.953 69.849 216.188 70.0938C216.427 70.3385 216.609 70.6562 216.734 71.0469C216.859 71.4323 216.922 71.9036 216.922 72.4609V78H215.469V72.4453C215.469 72.0026 215.404 71.6484 215.273 71.3828C215.143 71.112 214.953 70.9167 214.703 70.7969C214.453 70.6719 214.146 70.6094 213.781 70.6094C213.422 70.6094 213.094 70.6849 212.797 70.8359C212.505 70.987 212.253 71.1953 212.039 71.4609C211.831 71.7266 211.667 72.0312 211.547 72.375C211.432 72.7135 211.375 73.0729 211.375 73.4531ZM224.594 69.5469H225.906V77.8203C225.906 78.5651 225.755 79.2005 225.453 79.7266C225.151 80.2526 224.729 80.651 224.188 80.9219C223.651 81.1979 223.031 81.3359 222.328 81.3359C222.036 81.3359 221.693 81.2891 221.297 81.1953C220.906 81.1068 220.521 80.9531 220.141 80.7344C219.766 80.5208 219.451 80.2318 219.195 79.8672L219.953 79.0078C220.307 79.4349 220.677 79.7318 221.062 79.8984C221.453 80.0651 221.839 80.1484 222.219 80.1484C222.677 80.1484 223.073 80.0625 223.406 79.8906C223.74 79.7188 223.997 79.4635 224.18 79.125C224.367 78.7917 224.461 78.3802 224.461 77.8906V71.4062L224.594 69.5469ZM218.773 73.8672V73.7031C218.773 73.0573 218.849 72.4714 219 71.9453C219.156 71.4141 219.378 70.9583 219.664 70.5781C219.956 70.1979 220.307 69.9062 220.719 69.7031C221.13 69.4948 221.594 69.3906 222.109 69.3906C222.641 69.3906 223.104 69.4844 223.5 69.6719C223.901 69.8542 224.24 70.1224 224.516 70.4766C224.797 70.8255 225.018 71.2474 225.18 71.7422C225.341 72.237 225.453 72.7969 225.516 73.4219V74.1406C225.458 74.7604 225.346 75.3177 225.18 75.8125C225.018 76.3073 224.797 76.7292 224.516 77.0781C224.24 77.4271 223.901 77.6953 223.5 77.8828C223.099 78.0651 222.63 78.1562 222.094 78.1562C221.589 78.1562 221.13 78.0495 220.719 77.8359C220.312 77.6224 219.964 77.3229 219.672 76.9375C219.38 76.5521 219.156 76.099 219 75.5781C218.849 75.0521 218.773 74.4818 218.773 73.8672ZM220.219 73.7031V73.8672C220.219 74.2891 220.26 74.6849 220.344 75.0547C220.432 75.4245 220.565 75.75 220.742 76.0312C220.924 76.3125 221.156 76.5339 221.438 76.6953C221.719 76.8516 222.055 76.9297 222.445 76.9297C222.924 76.9297 223.32 76.8281 223.633 76.625C223.945 76.4219 224.193 76.1536 224.375 75.8203C224.562 75.487 224.708 75.125 224.812 74.7344V72.8516C224.755 72.5651 224.667 72.2891 224.547 72.0234C224.432 71.7526 224.281 71.513 224.094 71.3047C223.911 71.0911 223.685 70.9219 223.414 70.7969C223.143 70.6719 222.826 70.6094 222.461 70.6094C222.065 70.6094 221.724 70.6927 221.438 70.8594C221.156 71.0208 220.924 71.2448 220.742 71.5312C220.565 71.8125 220.432 72.1406 220.344 72.5156C220.26 72.8854 220.219 73.2812 220.219 73.7031Z" fill="#7B7B7B"/>
<path d="M1.34766 5.46875H2.44336L5.23828 12.4238L8.02734 5.46875H9.12891L5.66016 14H4.80469L1.34766 5.46875ZM0.990234 5.46875H1.95703L2.11523 10.6719V14H0.990234V5.46875ZM8.51367 5.46875H9.48047V14H8.35547V10.6719L8.51367 5.46875ZM13.9336 14.1172C13.4922 14.1172 13.0918 14.043 12.7324 13.8945C12.377 13.7422 12.0703 13.5293 11.8125 13.2559C11.5586 12.9824 11.3633 12.6582 11.2266 12.2832C11.0898 11.9082 11.0215 11.498 11.0215 11.0527V10.8066C11.0215 10.291 11.0977 9.83203 11.25 9.42969C11.4023 9.02344 11.6094 8.67969 11.8711 8.39844C12.1328 8.11719 12.4297 7.9043 12.7617 7.75977C13.0938 7.61523 13.4375 7.54297 13.793 7.54297C14.2461 7.54297 14.6367 7.62109 14.9648 7.77734C15.2969 7.93359 15.5684 8.15234 15.7793 8.43359C15.9902 8.71094 16.1465 9.03906 16.248 9.41797C16.3496 9.79297 16.4004 10.2031 16.4004 10.6484V11.1348H11.666V10.25H15.3164V10.168C15.3008 9.88672 15.2422 9.61328 15.1406 9.34766C15.043 9.08203 14.8867 8.86328 14.6719 8.69141C14.457 8.51953 14.1641 8.43359 13.793 8.43359C13.5469 8.43359 13.3203 8.48633 13.1133 8.5918C12.9062 8.69336 12.7285 8.8457 12.5801 9.04883C12.4316 9.25195 12.3164 9.5 12.2344 9.79297C12.1523 10.0859 12.1113 10.4238 12.1113 10.8066V11.0527C12.1113 11.3535 12.1523 11.6367 12.2344 11.9023C12.3203 12.1641 12.4434 12.3945 12.6035 12.5938C12.7676 12.793 12.9648 12.9492 13.1953 13.0625C13.4297 13.1758 13.6953 13.2324 13.9922 13.2324C14.375 13.2324 14.6992 13.1543 14.9648 12.998C15.2305 12.8418 15.4629 12.6328 15.6621 12.3711L16.3184 12.8926C16.1816 13.0996 16.0078 13.2969 15.7969 13.4844C15.5859 13.6719 15.3262 13.8242 15.0176 13.9414C14.7129 14.0586 14.3516 14.1172 13.9336 14.1172ZM21.6621 12.7695V5H22.752V14H21.7559L21.6621 12.7695ZM17.3965 10.9004V10.7773C17.3965 10.293 17.4551 9.85352 17.5723 9.45898C17.6934 9.06055 17.8633 8.71875 18.082 8.43359C18.3047 8.14844 18.5684 7.92969 18.873 7.77734C19.1816 7.62109 19.5254 7.54297 19.9043 7.54297C20.3027 7.54297 20.6504 7.61328 20.9473 7.75391C21.248 7.89062 21.502 8.0918 21.709 8.35742C21.9199 8.61914 22.0859 8.93555 22.207 9.30664C22.3281 9.67773 22.4121 10.0977 22.459 10.5664V11.1055C22.416 11.5703 22.332 11.9883 22.207 12.3594C22.0859 12.7305 21.9199 13.0469 21.709 13.3086C21.502 13.5703 21.248 13.7715 20.9473 13.9121C20.6465 14.0488 20.2949 14.1172 19.8926 14.1172C19.5215 14.1172 19.1816 14.0371 18.873 13.877C18.5684 13.7168 18.3047 13.4922 18.082 13.2031C17.8633 12.9141 17.6934 12.5742 17.5723 12.1836C17.4551 11.7891 17.3965 11.3613 17.3965 10.9004ZM18.4863 10.7773V10.9004C18.4863 11.2168 18.5176 11.5137 18.5801 11.791C18.6465 12.0684 18.748 12.3125 18.8848 12.5234C19.0215 12.7344 19.1953 12.9004 19.4062 13.0215C19.6172 13.1387 19.8691 13.1973 20.1621 13.1973C20.5215 13.1973 20.8164 13.1211 21.0469 12.9688C21.2812 12.8164 21.4688 12.6152 21.6094 12.3652C21.75 12.1152 21.8594 11.8438 21.9375 11.5508V10.1387C21.8906 9.92383 21.8223 9.7168 21.7324 9.51758C21.6465 9.31445 21.5332 9.13477 21.3926 8.97852C21.2559 8.81836 21.0859 8.69141 20.8828 8.59766C20.6836 8.50391 20.4473 8.45703 20.1738 8.45703C19.877 8.45703 19.6211 8.51953 19.4062 8.64453C19.1953 8.76562 19.0215 8.93359 18.8848 9.14844C18.748 9.35938 18.6465 9.60547 18.5801 9.88672C18.5176 10.1641 18.4863 10.4609 18.4863 10.7773ZM25.6172 5V14H24.5273V5H25.6172ZM29.9883 14.1172C29.5469 14.1172 29.1465 14.043 28.7871 13.8945C28.4316 13.7422 28.125 13.5293 27.8672 13.2559C27.6133 12.9824 27.418 12.6582 27.2812 12.2832C27.1445 11.9082 27.0762 11.498 27.0762 11.0527V10.8066C27.0762 10.291 27.1523 9.83203 27.3047 9.42969C27.457 9.02344 27.6641 8.67969 27.9258 8.39844C28.1875 8.11719 28.4844 7.9043 28.8164 7.75977C29.1484 7.61523 29.4922 7.54297 29.8477 7.54297C30.3008 7.54297 30.6914 7.62109 31.0195 7.77734C31.3516 7.93359 31.623 8.15234 31.834 8.43359C32.0449 8.71094 32.2012 9.03906 32.3027 9.41797C32.4043 9.79297 32.4551 10.2031 32.4551 10.6484V11.1348H27.7207V10.25H31.3711V10.168C31.3555 9.88672 31.2969 9.61328 31.1953 9.34766C31.0977 9.08203 30.9414 8.86328 30.7266 8.69141C30.5117 8.51953 30.2188 8.43359 29.8477 8.43359C29.6016 8.43359 29.375 8.48633 29.168 8.5918C28.9609 8.69336 28.7832 8.8457 28.6348 9.04883C28.4863 9.25195 28.3711 9.5 28.2891 9.79297C28.207 10.0859 28.166 10.4238 28.166 10.8066V11.0527C28.166 11.3535 28.207 11.6367 28.2891 11.9023C28.375 12.1641 28.498 12.3945 28.6582 12.5938C28.8223 12.793 29.0195 12.9492 29.25 13.0625C29.4844 13.1758 29.75 13.2324 30.0469 13.2324C30.4297 13.2324 30.7539 13.1543 31.0195 12.998C31.2852 12.8418 31.5176 12.6328 31.7168 12.3711L32.373 12.8926C32.2363 13.0996 32.0625 13.2969 31.8516 13.4844C31.6406 13.6719 31.3809 13.8242 31.0723 13.9414C30.7676 14.0586 30.4062 14.1172 29.9883 14.1172ZM34.7988 8.91992V14H33.709V7.66016H34.7402L34.7988 8.91992ZM34.5762 10.5898L34.0723 10.5723C34.0762 10.1387 34.1328 9.73828 34.2422 9.37109C34.3516 9 34.5137 8.67773 34.7285 8.4043C34.9434 8.13086 35.2109 7.91992 35.5312 7.77148C35.8516 7.61914 36.2227 7.54297 36.6445 7.54297C36.9414 7.54297 37.2148 7.58594 37.4648 7.67188C37.7148 7.75391 37.9316 7.88477 38.1152 8.06445C38.2988 8.24414 38.4414 8.47461 38.543 8.75586C38.6445 9.03711 38.6953 9.37695 38.6953 9.77539V14H37.6113V9.82812C37.6113 9.49609 37.5547 9.23047 37.4414 9.03125C37.332 8.83203 37.1758 8.6875 36.9727 8.59766C36.7695 8.50391 36.5312 8.45703 36.2578 8.45703C35.9375 8.45703 35.6699 8.51367 35.4551 8.62695C35.2402 8.74023 35.0684 8.89648 34.9395 9.0957C34.8105 9.29492 34.7168 9.52344 34.6582 9.78125C34.6035 10.0352 34.5762 10.3047 34.5762 10.5898ZM38.6836 9.99219L37.957 10.2148C37.9609 9.86719 38.0176 9.5332 38.127 9.21289C38.2402 8.89258 38.4023 8.60742 38.6133 8.35742C38.8281 8.10742 39.0918 7.91016 39.4043 7.76562C39.7168 7.61719 40.0742 7.54297 40.4766 7.54297C40.8164 7.54297 41.1172 7.58789 41.3789 7.67773C41.6445 7.76758 41.8672 7.90625 42.0469 8.09375C42.2305 8.27734 42.3691 8.51367 42.4629 8.80273C42.5566 9.0918 42.6035 9.43555 42.6035 9.83398V14H41.5137V9.82227C41.5137 9.4668 41.457 9.19141 41.3438 8.99609C41.2344 8.79688 41.0781 8.6582 40.875 8.58008C40.6758 8.49805 40.4375 8.45703 40.1602 8.45703C39.9219 8.45703 39.7109 8.49805 39.5273 8.58008C39.3438 8.66211 39.1895 8.77539 39.0645 8.91992C38.9395 9.06055 38.8438 9.22266 38.7773 9.40625C38.7148 9.58984 38.6836 9.78516 38.6836 9.99219ZM50.959 12.916V9.65234C50.959 9.40234 50.9082 9.18555 50.8066 9.00195C50.709 8.81445 50.5605 8.66992 50.3613 8.56836C50.1621 8.4668 49.916 8.41602 49.623 8.41602C49.3496 8.41602 49.1094 8.46289 48.9023 8.55664C48.6992 8.65039 48.5391 8.77344 48.4219 8.92578C48.3086 9.07812 48.252 9.24219 48.252 9.41797H47.168C47.168 9.19141 47.2266 8.9668 47.3438 8.74414C47.4609 8.52148 47.6289 8.32031 47.8477 8.14062C48.0703 7.95703 48.3359 7.8125 48.6445 7.70703C48.957 7.59766 49.3047 7.54297 49.6875 7.54297C50.1484 7.54297 50.5547 7.62109 50.9062 7.77734C51.2617 7.93359 51.5391 8.16992 51.7383 8.48633C51.9414 8.79883 52.043 9.19141 52.043 9.66406V12.6172C52.043 12.8281 52.0605 13.0527 52.0957 13.291C52.1348 13.5293 52.1914 13.7344 52.2656 13.9062V14H51.1348C51.0801 13.875 51.0371 13.709 51.0059 13.502C50.9746 13.291 50.959 13.0957 50.959 12.916ZM51.1465 10.1562L51.1582 10.918H50.0625C49.7539 10.918 49.4785 10.9434 49.2363 10.9941C48.9941 11.041 48.791 11.1133 48.627 11.2109C48.4629 11.3086 48.3379 11.4316 48.252 11.5801C48.166 11.7246 48.123 11.8945 48.123 12.0898C48.123 12.2891 48.168 12.4707 48.2578 12.6348C48.3477 12.7988 48.4824 12.9297 48.6621 13.0273C48.8457 13.1211 49.0703 13.168 49.3359 13.168C49.668 13.168 49.9609 13.0977 50.2148 12.957C50.4688 12.8164 50.6699 12.6445 50.8184 12.4414C50.9707 12.2383 51.0527 12.041 51.0645 11.8496L51.5273 12.3711C51.5 12.5352 51.4258 12.7168 51.3047 12.916C51.1836 13.1152 51.0215 13.3066 50.8184 13.4902C50.6191 13.6699 50.3809 13.8203 50.1035 13.9414C49.8301 14.0586 49.5215 14.1172 49.1777 14.1172C48.748 14.1172 48.3711 14.0332 48.0469 13.8652C47.7266 13.6973 47.4766 13.4727 47.2969 13.1914C47.1211 12.9062 47.0332 12.5879 47.0332 12.2363C47.0332 11.8965 47.0996 11.5977 47.2324 11.3398C47.3652 11.0781 47.5566 10.8613 47.8066 10.6895C48.0566 10.5137 48.3574 10.3809 48.709 10.291C49.0605 10.2012 49.4531 10.1562 49.8867 10.1562H51.1465ZM55.3652 14H54.2812V6.99219C54.2812 6.53516 54.3633 6.15039 54.5273 5.83789C54.6953 5.52148 54.9355 5.2832 55.248 5.12305C55.5605 4.95898 55.9316 4.87695 56.3613 4.87695C56.4863 4.87695 56.6113 4.88477 56.7363 4.90039C56.8652 4.91602 56.9902 4.93945 57.1113 4.9707L57.0527 5.85547C56.9707 5.83594 56.877 5.82227 56.7715 5.81445C56.6699 5.80664 56.5684 5.80273 56.4668 5.80273C56.2363 5.80273 56.0371 5.84961 55.8691 5.94336C55.7051 6.0332 55.5801 6.16602 55.4941 6.3418C55.4082 6.51758 55.3652 6.73438 55.3652 6.99219V14ZM56.7129 7.66016V8.49219H53.2793V7.66016H56.7129Z" fill="#7B7B7B"/>
<path d="M10.7061 52H4.82422L4.86133 47.6582H10.7061C12.1657 47.6582 13.3965 47.3304 14.3984 46.6748C15.4004 46.0068 16.1549 45.0358 16.6621 43.7617C17.1816 42.4876 17.4414 40.9476 17.4414 39.1416V37.8242C17.4414 36.4388 17.293 35.2204 16.9961 34.1689C16.7116 33.1175 16.2848 32.2331 15.7158 31.5156C15.1468 30.7982 14.4479 30.2601 13.6191 29.9014C12.7904 29.5303 11.8379 29.3447 10.7617 29.3447H4.71289V24.9844H10.7617C12.5677 24.9844 14.2191 25.2936 15.7158 25.9121C17.2249 26.5182 18.5299 27.3903 19.6309 28.5283C20.7318 29.6663 21.5791 31.027 22.1729 32.6104C22.779 34.1813 23.082 35.9316 23.082 37.8613V39.1416C23.082 41.0589 22.779 42.8092 22.1729 44.3926C21.5791 45.9759 20.7318 47.3366 19.6309 48.4746C18.5423 49.6003 17.2373 50.4723 15.7158 51.0908C14.2067 51.6969 12.5368 52 10.7061 52ZM7.97852 24.9844V52H2.41211V24.9844H7.97852ZM29.6689 24.9844H34.3818L41.3213 44.8193L48.2607 24.9844H52.9736L43.2139 52H39.4287L29.6689 24.9844ZM27.127 24.9844H31.8213L32.6748 44.3184V52H27.127V24.9844ZM50.8213 24.9844H55.5342V52H49.9678V44.3184L50.8213 24.9844ZM74.4785 44.9307C74.4785 44.4482 74.4043 44.0153 74.2559 43.6318C74.1198 43.236 73.86 42.8773 73.4766 42.5557C73.0931 42.2217 72.555 41.8939 71.8623 41.5723C71.1696 41.2507 70.2728 40.9167 69.1719 40.5703C67.9473 40.1745 66.7845 39.7292 65.6836 39.2344C64.5951 38.7396 63.6302 38.1644 62.7891 37.5088C61.9603 36.8408 61.3047 36.0677 60.8223 35.1895C60.3522 34.3112 60.1172 33.2907 60.1172 32.1279C60.1172 31.0023 60.3646 29.9818 60.8594 29.0664C61.3542 28.1387 62.0469 27.347 62.9375 26.6914C63.8281 26.0234 64.8796 25.5101 66.0918 25.1514C67.3164 24.7926 68.6585 24.6133 70.1182 24.6133C72.1097 24.6133 73.8477 24.972 75.332 25.6895C76.8164 26.4069 77.9668 27.3903 78.7832 28.6396C79.612 29.889 80.0264 31.3177 80.0264 32.9258H74.4971C74.4971 32.1341 74.3301 31.4414 73.9961 30.8477C73.6745 30.2415 73.1797 29.7653 72.5117 29.4189C71.8561 29.0726 71.0273 28.8994 70.0254 28.8994C69.0605 28.8994 68.2565 29.0479 67.6133 29.3447C66.9701 29.6292 66.4876 30.0189 66.166 30.5137C65.8444 30.9961 65.6836 31.5404 65.6836 32.1465C65.6836 32.6042 65.7949 33.0186 66.0176 33.3896C66.2526 33.7607 66.599 34.1071 67.0566 34.4287C67.5143 34.7503 68.0771 35.0534 68.7451 35.3379C69.4131 35.6224 70.1862 35.9007 71.0645 36.1729C72.5365 36.6182 73.8291 37.1191 74.9424 37.6758C76.068 38.2324 77.0081 38.8571 77.7627 39.5498C78.5173 40.2425 79.0863 41.028 79.4697 41.9062C79.8532 42.7845 80.0449 43.7803 80.0449 44.8936C80.0449 46.0687 79.8161 47.1201 79.3584 48.0479C78.9007 48.9756 78.2389 49.7611 77.373 50.4043C76.5072 51.0475 75.4743 51.5361 74.2744 51.8701C73.0745 52.2041 71.7324 52.3711 70.248 52.3711C68.9121 52.3711 67.5947 52.1979 66.2959 51.8516C64.9971 51.4928 63.8158 50.9548 62.752 50.2373C61.7005 49.5199 60.8594 48.6045 60.2285 47.4912C59.5977 46.3779 59.2822 45.0605 59.2822 43.5391H64.8672C64.8672 44.3802 64.9971 45.0915 65.2568 45.6729C65.5166 46.2542 65.8815 46.7243 66.3516 47.083C66.834 47.4417 67.403 47.7015 68.0586 47.8623C68.7266 48.0231 69.4564 48.1035 70.248 48.1035C71.2129 48.1035 72.0046 47.9674 72.623 47.6953C73.2539 47.4232 73.7178 47.0459 74.0146 46.5635C74.3239 46.0811 74.4785 45.5368 74.4785 44.9307Z" fill="#7B7B7B"/>
</svg>
